<?xml version="1.0" encoding="UTF-8"?><svg id="Layer_1" xmlns="http://www.w3.org/2000/svg" viewBox="0 0 29 29"><defs><style>.cls-1{fill:#d20a0a;}</style></defs><g id="_d20a0aff"><path class="cls-1" d="M2.76,9.65h3.32c-.66,2.37-1.32,4.75-1.98,7.12-.03.08-.03.18.02.26.08.13.24.18.39.19.17,0,.35,0,.52,0,.19,0,.38,0,.56-.06.12-.05.2-.17.23-.29.67-2.4,1.33-4.81,2-7.21h3.3c-.7,2.53-1.4,5.05-2.1,7.58-.08.27-.15.54-.23.81-.1.33-.27.64-.53.86-.2.17-.44.26-.69.32-.35.09-.71.11-1.07.13H2.23c-.42-.03-.86-.12-1.21-.37-.23-.16-.42-.39-.49-.66-.04-.12-.03-.24-.03-.36,0-.14.05-.28.09-.42.73-2.63,1.46-5.27,2.19-7.9h-.02Z"/><path class="cls-1" d="M12.71,9.65h7.14c-.2.71-.39,1.42-.59,2.13-2.38,0-4.76,0-7.14,0,.2-.71.39-1.42.59-2.13Z"/><path class="cls-1" d="M23.08,9.65h5.42c-.08.32-.18.64-.26.96-.11.39-.22.78-.33,1.17-1.17,0-2.35,0-3.52,0-.17,0-.35,0-.51.07-.13.06-.2.19-.23.32-.43,1.54-.86,3.09-1.28,4.63-.03.1,0,.21.07.28.1.11.26.14.41.14,1.28,0,2.55,0,3.83,0-.2.71-.39,1.42-.59,2.13h-5.43c-.41-.03-.82-.12-1.17-.34-.23-.14-.42-.36-.51-.61-.08-.22-.08-.46-.01-.69.61-2.21,1.23-4.42,1.84-6.63.09-.33.23-.65.47-.89.16-.16.36-.28.57-.35.4-.13.82-.17,1.23-.19Z"/><path class="cls-1" d="M11.71,13.25c2.38,0,4.76,0,7.15,0-.2.71-.4,1.42-.59,2.14-1.28,0-2.56,0-3.84,0-.37,1.32-.73,2.64-1.1,3.96h.02s-3.33,0-3.33,0c.57-2.03,1.13-4.07,1.69-6.1Z"/></g></svg>